[INFO] Render 20260509_061850_9f54b288 started
$ "D:\Project AI\vela_ai_studio_v5\ffmpeg-2026-05-06-git-f2e5eff3ff-full_build\bin\ffmpeg.exe" -y -loop 1 -framerate 24 -t 2.000 -i outputs\v66_render_smoke\scene.png -vf scale=960:540:force_original_aspect_ratio=increase,crop=960:540,zoompan=z='min(zoom+0.0014,1.18)':x='(iw-iw/zoom)/2+sin(on/8)*5':y='(ih-ih/zoom)/2':d=48:s=960x540:fps=24,setsar=1,format=yuv420p,eq=contrast=1.05:saturation=1.08:gamma_r=1.04:gamma_b=0.96,colorbalance=rs=.12:gs=.04:bs=-.08,eq=brightness='if(lt(t,0.18),0.18,0)' -an -c:v libx264 -preset veryfast -crf 28 -pix_fmt yuv420p outputs\v66_render_smoke\renders\V66_Smoke\20260509_061850_9f54b288\cache\16x9\scene_01.mp4
ffmpeg version 2026-05-06-git-f2e5eff3ff-full_build-www.gyan.dev Copyright (c) 2000-2026 the FFmpeg developers
  built with gcc 15.2.0 (Rev13, Built by MSYS2 project)
  configuration: --enable-gpl --enable-version3 --enable-static --disable-w32threads --disable-autodetect --enable-cairo --enable-fontconfig --enable-iconv --enable-gnutls --enable-lcms2 --enable-libxml2 --enable-gmp --enable-bzlib --enable-lzma --enable-libsnappy --enable-zlib --enable-librist --enable-libsrt --enable-libssh --enable-libzmq --enable-avisynth --enable-libbluray --enable-libcaca --enable-libdvdnav --enable-libdvdread --enable-sdl2 --enable-libaribb24 --enable-libaribcaption --enable-libdav1d --enable-libdavs2 --enable-libopenjpeg --enable-libquirc --enable-libuavs3d --enable-libxevd --enable-libzvbi --enable-liboapv --enable-libqrencode --enable-librav1e --enable-libsvtav1 --enable-libvvenc --enable-libwebp --enable-libx264 --enable-libx265 --enable-libxavs2 --enable-libxeve --enable-libxvid --enable-libaom --enable-libjxl --enable-libsvtjpegxs --enable-libvpx --enable-mediafoundation --enable-libass --enable-frei0r --enable-libfreetype --enable-libfribidi --enable-libharfbuzz --enable-liblensfun --enable-libvidstab --enable-libvmaf --enable-libzimg --enable-amf --enable-cuda-llvm --enable-cuvid --enable-dxva2 --enable-d3d11va --enable-d3d12va --enable-ffnvcodec --enable-libvpl --enable-nvdec --enable-nvenc --enable-vaapi --enable-libshaderc --enable-vulkan --enable-libplacebo --enable-opencl --enable-libcdio --enable-openal --enable-libgme --enable-libmodplug --enable-libopenmpt --enable-libopencore-amrwb --enable-libmp3lame --enable-libshine --enable-libtheora --enable-libtwolame --enable-libvo-amrwbenc --enable-libcodec2 --enable-libilbc --enable-libgsm --enable-liblc3 --enable-libopencore-amrnb --enable-libopus --enable-libspeex --enable-libvorbis --enable-ladspa --enable-libbs2b --enable-libflite --enable-libmysofa --enable-librubberband --enable-libsoxr --enable-chromaprint --enable-whisper
  libavutil      60. 30.100 / 60. 30.100
  libavcodec     62. 30.100 / 62. 30.100
  libavformat    62. 15.100 / 62. 15.100
  libavdevice    62.  4.100 / 62.  4.100
  libavfilter    11. 17.100 / 11. 17.100
  libswscale      9.  7.100 /  9.  7.100
  libswresample   6.  4.100 /  6.  4.100
Input #0, png_pipe, from 'outputs\v66_render_smoke\scene.png':
  Duration: N/A, bitrate: N/A
  Stream #0:0: Video: png, rgb24(pc, gbr/unknown/unknown), 512x512, 24 fps, 24 tbr, 24 tbn
Stream mapping:
  Stream #0:0 -> #0:0 (png (native) -> h264 (libx264))
Press [q] to stop, [?] for help
[libx264 @ 000001e3b3e41840] using SAR=1/1
[libx264 @ 000001e3b3e41840] using cpu capabilities: MMX2 SSE2Fast SSSE3 SSE4.2 AVX FMA3 BMI2 AVX2
[libx264 @ 000001e3b3e41840] profile High, level 3.1, 4:2:0, 8-bit
[libx264 @ 000001e3b3e41840] 264 - core 165 r3223 0480cb0 - H.264/MPEG-4 AVC codec - Copyleft 2003-2025 - http://www.videolan.org/x264.html - options: cabac=1 ref=1 deblock=1:0:0 analyse=0x3:0x113 me=hex subme=2 psy=1 psy_rd=1.00:0.00 mixed_ref=0 me_range=16 chroma_me=1 trellis=0 8x8dct=1 cqm=0 deadzone=21,11 fast_pskip=1 chroma_qp_offset=0 threads=17 lookahead_threads=4 sliced_threads=0 nr=0 decimate=1 interlaced=0 bluray_compat=0 constrained_intra=0 bframes=3 b_pyramid=2 b_adapt=1 b_bias=0 direct=1 weightb=1 open_gop=0 weightp=1 keyint=250 keyint_min=24 scenecut=40 intra_refresh=0 rc_lookahead=10 rc=crf mbtree=1 crf=28.0 qcomp=0.60 qpmin=0 qpmax=69 qpstep=4 ip_ratio=1.40 aq=1:1.00
Output #0, mp4, to 'outputs\v66_render_smoke\renders\V66_Smoke\20260509_061850_9f54b288\cache\16x9\scene_01.mp4':
  Metadata:
    encoder         : Lavf62.15.100
  Stream #0:0: Video: h264 (avc1 / 0x31637661), yuv420p(tv, progressive), 960x540 [SAR 1:1 DAR 16:9], q=2-31, 24 fps, 12288 tbn
    Metadata:
      encoder         : Lavc62.30.100 libx264
    Side data:
      CPB properties: bitrate max/min/avg: 0/0/0 buffer size: 0 vbv_delay: N/A
frame=   97 fps=0.0 q=33.0 size=       0KiB time=00:00:03.95 bitrate=   0.1kbits/s speed= 7.7x elapsed=0:00:00.51    
frame=  228 fps=219 q=33.0 size=       0KiB time=00:00:09.41 bitrate=   0.0kbits/s speed=9.06x elapsed=0:00:01.03    
frame=  358 fps=231 q=33.0 size=       0KiB time=00:00:14.83 bitrate=   0.0kbits/s speed=9.58x elapsed=0:00:01.54    
frame=  490 fps=236 q=33.0 size=       0KiB time=00:00:20.33 bitrate=   0.0kbits/s speed=9.81x elapsed=0:00:02.07    
frame=  624 fps=242 q=33.0 size=       0KiB time=00:00:25.91 bitrate=   0.0kbits/s speed=  10x elapsed=0:00:02.58    
frame=  758 fps=245 q=33.0 size=       0KiB time=00:00:31.50 bitrate=   0.0kbits/s speed=10.2x elapsed=0:00:03.09    
frame=  894 fps=247 q=33.0 size=       0KiB time=00:00:37.16 bitrate=   0.0kbits/s speed=10.3x elapsed=0:00:03.62    
frame= 1026 fps=249 q=33.0 size=       0KiB time=00:00:42.66 bitrate=   0.0kbits/s speed=10.3x elapsed=0:00:04.12    
frame= 1158 fps=249 q=33.0 size=       0KiB time=00:00:48.16 bitrate=   0.0kbits/s speed=10.4x elapsed=0:00:04.64    
frame= 1291 fps=250 q=33.0 size=       0KiB time=00:00:53.70 bitrate=   0.0kbits/s speed=10.4x elapsed=0:00:05.15    
frame= 1428 fps=251 q=33.0 size=       0KiB time=00:00:59.41 bitrate=   0.0kbits/s speed=10.5x elapsed=0:00:05.68    
frame= 1561 fps=252 q=33.0 size=       0KiB time=00:01:04.95 bitrate=   0.0kbits/s speed=10.5x elapsed=0:00:06.18    
frame= 1695 fps=253 q=33.0 size=     256KiB time=00:01:10.54 bitrate=  29.7kbits/s speed=10.5x elapsed=0:00:06.70    
frame= 1832 fps=253 q=33.0 size=     256KiB time=00:01:16.25 bitrate=  27.5kbits/s speed=10.6x elapsed=0:00:07.22    
frame= 1964 fps=254 q=33.0 size=     256KiB time=00:01:21.75 bitrate=  25.7kbits/s speed=10.6x elapsed=0:00:07.73    
frame= 2096 fps=254 q=33.0 size=     256KiB time=00:01:27.25 bitrate=  24.0kbits/s speed=10.6x elapsed=0:00:08.24    
frame= 2233 fps=255 q=33.0 size=     256KiB time=00:01:32.95 bitrate=  22.6kbits/s speed=10.6x elapsed=0:00:08.77    
[out#0/mp4 @ 000001e3b3dc5080] video:375KiB audio:0KiB subtitle:0KiB other streams:0KiB global headers:0KiB muxing overhead: 7.218582%
frame= 2304 fps=258 q=-1.0 Lsize=     402KiB time=00:01:35.91 bitrate=  34.3kbits/s speed=10.7x elapsed=0:00:08.94    
[libx264 @ 000001e3b3e41840] frame I:18    Avg QP:13.90  size:  2351
[libx264 @ 000001e3b3e41840] frame P:662   Avg QP:22.85  size:   305
[libx264 @ 000001e3b3e41840] frame B:1624  Avg QP:29.96  size:    85
[libx264 @ 000001e3b3e41840] consecutive B-frames:  2.8%  5.6% 12.1% 79.5%
[libx264 @ 000001e3b3e41840] mb I  I16..4: 96.2%  0.7%  3.1%
[libx264 @ 000001e3b3e41840] mb P  I16..4:  4.4%  0.0%  0.0%  P16..4:  3.1%  0.3%  0.1%  0.0%  0.0%    skip:91.9%
[libx264 @ 000001e3b3e41840] mb B  I16..4:  0.8%  0.0%  0.0%  B16..8:  1.7%  0.1%  0.0%  direct: 0.1%  skip:97.3%  L0:48.5% L1:47.2% BI: 4.3%
[libx264 @ 000001e3b3e41840] 8x8 transform intra:0.8% inter:29.6%
[libx264 @ 000001e3b3e41840] coded y,uvDC,uvAC intra: 1.7% 3.3% 1.9% inter: 0.1% 0.1% 0.0%
[libx264 @ 000001e3b3e41840] i16 v,h,dc,p: 95%  4%  1%  0%
[libx264 @ 000001e3b3e41840] i8 v,h,dc,ddl,ddr,vr,hd,vl,hu: 37%  8% 54%  1%  0%  0%  0%  0%  0%
[libx264 @ 000001e3b3e41840] i4 v,h,dc,ddl,ddr,vr,hd,vl,hu: 33% 14% 29%  2%  4%  4%  4%  3%  6%
[libx264 @ 000001e3b3e41840] i8c dc,h,v,p: 39%  3% 58%  0%
[libx264 @ 000001e3b3e41840] Weighted P-Frames: Y:0.0% UV:0.0%
[libx264 @ 000001e3b3e41840] kb/s:31.92
$ "D:\Project AI\vela_ai_studio_v5\ffmpeg-2026-05-06-git-f2e5eff3ff-full_build\bin\ffmpeg.exe" -y -f concat -safe 0 -i outputs\v66_render_smoke\renders\V66_Smoke\20260509_061850_9f54b288\temp\concat_16x9.txt -c copy outputs\v66_render_smoke\renders\V66_Smoke\20260509_061850_9f54b288\temp\joined_16x9.mp4
ffmpeg version 2026-05-06-git-f2e5eff3ff-full_build-www.gyan.dev Copyright (c) 2000-2026 the FFmpeg developers
  built with gcc 15.2.0 (Rev13, Built by MSYS2 project)
  configuration: --enable-gpl --enable-version3 --enable-static --disable-w32threads --disable-autodetect --enable-cairo --enable-fontconfig --enable-iconv --enable-gnutls --enable-lcms2 --enable-libxml2 --enable-gmp --enable-bzlib --enable-lzma --enable-libsnappy --enable-zlib --enable-librist --enable-libsrt --enable-libssh --enable-libzmq --enable-avisynth --enable-libbluray --enable-libcaca --enable-libdvdnav --enable-libdvdread --enable-sdl2 --enable-libaribb24 --enable-libaribcaption --enable-libdav1d --enable-libdavs2 --enable-libopenjpeg --enable-libquirc --enable-libuavs3d --enable-libxevd --enable-libzvbi --enable-liboapv --enable-libqrencode --enable-librav1e --enable-libsvtav1 --enable-libvvenc --enable-libwebp --enable-libx264 --enable-libx265 --enable-libxavs2 --enable-libxeve --enable-libxvid --enable-libaom --enable-libjxl --enable-libsvtjpegxs --enable-libvpx --enable-mediafoundation --enable-libass --enable-frei0r --enable-libfreetype --enable-libfribidi --enable-libharfbuzz --enable-liblensfun --enable-libvidstab --enable-libvmaf --enable-libzimg --enable-amf --enable-cuda-llvm --enable-cuvid --enable-dxva2 --enable-d3d11va --enable-d3d12va --enable-ffnvcodec --enable-libvpl --enable-nvdec --enable-nvenc --enable-vaapi --enable-libshaderc --enable-vulkan --enable-libplacebo --enable-opencl --enable-libcdio --enable-openal --enable-libgme --enable-libmodplug --enable-libopenmpt --enable-libopencore-amrwb --enable-libmp3lame --enable-libshine --enable-libtheora --enable-libtwolame --enable-libvo-amrwbenc --enable-libcodec2 --enable-libilbc --enable-libgsm --enable-liblc3 --enable-libopencore-amrnb --enable-libopus --enable-libspeex --enable-libvorbis --enable-ladspa --enable-libbs2b --enable-libflite --enable-libmysofa --enable-librubberband --enable-libsoxr --enable-chromaprint --enable-whisper
  libavutil      60. 30.100 / 60. 30.100
  libavcodec     62. 30.100 / 62. 30.100
  libavformat    62. 15.100 / 62. 15.100
  libavdevice    62.  4.100 / 62.  4.100
  libavfilter    11. 17.100 / 11. 17.100
  libswscale      9.  7.100 /  9.  7.100
  libswresample   6.  4.100 /  6.  4.100
[mov,mp4,m4a,3gp,3g2,mj2 @ 000001c1bc111580] Auto-inserting h264_mp4toannexb bitstream filter
Input #0, concat, from 'outputs\v66_render_smoke\renders\V66_Smoke\20260509_061850_9f54b288\temp\concat_16x9.txt':
  Duration: N/A, start: 0.000000, bitrate: 31 kb/s
  Stream #0:0(und): Video: h264 (High) (avc1 / 0x31637661), yuv420p(progressive), 960x540 [SAR 1:1 DAR 16:9], 31 kb/s, 24 fps, 24 tbr, 12288 tbn
    Metadata:
      handler_name    : VideoHandler
      encoder         : Lavc62.30.100 libx264
Stream mapping:
  Stream #0:0 -> #0:0 (copy)
Output #0, mp4, to 'outputs\v66_render_smoke\renders\V66_Smoke\20260509_061850_9f54b288\temp\joined_16x9.mp4':
  Metadata:
    encoder         : Lavf62.15.100
  Stream #0:0(und): Video: h264 (High) (avc1 / 0x31637661), yuv420p(progressive), 960x540 [SAR 1:1 DAR 16:9], q=2-31, 31 kb/s, 24 fps, 24 tbr, 12288 tbn
    Metadata:
      handler_name    : VideoHandler
      encoder         : Lavc62.30.100 libx264
Press [q] to stop, [?] for help
[out#0/mp4 @ 000001c1bc08f100] video:375KiB audio:0KiB subtitle:0KiB other streams:0KiB global headers:0KiB muxing overhead: 7.210913%
frame= 2304 fps=0.0 q=-1.0 Lsize=     402KiB time=00:01:35.91 bitrate=  34.4kbits/s speed=7.56e+03x elapsed=0:00:00.01
$ "D:\Project AI\vela_ai_studio_v5\ffmpeg-2026-05-06-git-f2e5eff3ff-full_build\bin\ffmpeg.exe" -y -i outputs\v66_render_smoke\renders\V66_Smoke\20260509_061850_9f54b288\temp\joined_16x9.mp4 -vf "ass='D\:/Project AI/vela_ai_studio_v5/outputs/v66_render_smoke/renders/V66_Smoke/20260509_061850_9f54b288/subtitle.ass'" -an -c:v libx264 -preset veryfast -crf 28 -pix_fmt yuv420p outputs\v66_render_smoke\renders\V66_Smoke\20260509_061850_9f54b288\final_16x9.mp4
ffmpeg version 2026-05-06-git-f2e5eff3ff-full_build-www.gyan.dev Copyright (c) 2000-2026 the FFmpeg developers
  built with gcc 15.2.0 (Rev13, Built by MSYS2 project)
  configuration: --enable-gpl --enable-version3 --enable-static --disable-w32threads --disable-autodetect --enable-cairo --enable-fontconfig --enable-iconv --enable-gnutls --enable-lcms2 --enable-libxml2 --enable-gmp --enable-bzlib --enable-lzma --enable-libsnappy --enable-zlib --enable-librist --enable-libsrt --enable-libssh --enable-libzmq --enable-avisynth --enable-libbluray --enable-libcaca --enable-libdvdnav --enable-libdvdread --enable-sdl2 --enable-libaribb24 --enable-libaribcaption --enable-libdav1d --enable-libdavs2 --enable-libopenjpeg --enable-libquirc --enable-libuavs3d --enable-libxevd --enable-libzvbi --enable-liboapv --enable-libqrencode --enable-librav1e --enable-libsvtav1 --enable-libvvenc --enable-libwebp --enable-libx264 --enable-libx265 --enable-libxavs2 --enable-libxeve --enable-libxvid --enable-libaom --enable-libjxl --enable-libsvtjpegxs --enable-libvpx --enable-mediafoundation --enable-libass --enable-frei0r --enable-libfreetype --enable-libfribidi --enable-libharfbuzz --enable-liblensfun --enable-libvidstab --enable-libvmaf --enable-libzimg --enable-amf --enable-cuda-llvm --enable-cuvid --enable-dxva2 --enable-d3d11va --enable-d3d12va --enable-ffnvcodec --enable-libvpl --enable-nvdec --enable-nvenc --enable-vaapi --enable-libshaderc --enable-vulkan --enable-libplacebo --enable-opencl --enable-libcdio --enable-openal --enable-libgme --enable-libmodplug --enable-libopenmpt --enable-libopencore-amrwb --enable-libmp3lame --enable-libshine --enable-libtheora --enable-libtwolame --enable-libvo-amrwbenc --enable-libcodec2 --enable-libilbc --enable-libgsm --enable-liblc3 --enable-libopencore-amrnb --enable-libopus --enable-libspeex --enable-libvorbis --enable-ladspa --enable-libbs2b --enable-libflite --enable-libmysofa --enable-librubberband --enable-libsoxr --enable-chromaprint --enable-whisper
  libavutil      60. 30.100 / 60. 30.100
  libavcodec     62. 30.100 / 62. 30.100
  libavformat    62. 15.100 / 62. 15.100
  libavdevice    62.  4.100 / 62.  4.100
  libavfilter    11. 17.100 / 11. 17.100
  libswscale      9.  7.100 /  9.  7.100
  libswresample   6.  4.100 /  6.  4.100
Input #0, mov,mp4,m4a,3gp,3g2,mj2, from 'outputs\v66_render_smoke\renders\V66_Smoke\20260509_061850_9f54b288\temp\joined_16x9.mp4':
  Metadata:
    major_brand     : isom
    minor_version   : 512
    compatible_brands: isomiso2avc1mp41
    encoder         : Lavf62.15.100
  Duration: 00:01:36.00, start: 0.000000, bitrate: 34 kb/s
  Stream #0:0[0x1](und): Video: h264 (High) (avc1 / 0x31637661), yuv420p(progressive), 960x540 [SAR 1:1 DAR 16:9], 32 kb/s, 24 fps, 24 tbr, 12288 tbn (default)
    Metadata:
      handler_name    : VideoHandler
      encoder         : Lavc62.30.100 libx264
[Parsed_ass_0 @ 00000217fcbf0340] libass API version: 0x1704000
[Parsed_ass_0 @ 00000217fcbf0340] libass source: commit: 0.17.4-27-g1cbba0a8818c83495114b3c2b5730410eecbdb2c
[Parsed_ass_0 @ 00000217fcbf0340] Shaper: FriBidi 1.0.16 (SIMPLE) HarfBuzz-ng 14.2.0 (COMPLEX)
[Parsed_ass_0 @ 00000217fcbf0340] Using font provider directwrite (with GDI)
[Parsed_ass_0 @ 00000217fcbf0340] Added subtitle file: 'D:/Project AI/vela_ai_studio_v5/outputs/v66_render_smoke/renders/V66_Smoke/20260509_061850_9f54b288/subtitle.ass' (2 styles, 1 events)
Stream mapping:
  Stream #0:0 -> #0:0 (h264 (native) -> h264 (libx264))
Press [q] to stop, [?] for help
[Parsed_ass_0 @ 00000217fcc6c8c0] libass API version: 0x1704000
[Parsed_ass_0 @ 00000217fcc6c8c0] libass source: commit: 0.17.4-27-g1cbba0a8818c83495114b3c2b5730410eecbdb2c
[Parsed_ass_0 @ 00000217fcc6c8c0] Shaper: FriBidi 1.0.16 (SIMPLE) HarfBuzz-ng 14.2.0 (COMPLEX)
[Parsed_ass_0 @ 00000217fcc6c8c0] Using font provider directwrite (with GDI)
[Parsed_ass_0 @ 00000217fcc6c8c0] Added subtitle file: 'D:/Project AI/vela_ai_studio_v5/outputs/v66_render_smoke/renders/V66_Smoke/20260509_061850_9f54b288/subtitle.ass' (2 styles, 1 events)
[Parsed_ass_0 @ 00000217fcc6c8c0] Neither PlayResX nor PlayResY defined. Assuming 384x288
[Parsed_ass_0 @ 00000217fcc6c8c0] fontselect: (Arial, 400, 0) -> ArialMT, 0, ArialMT
[Parsed_ass_0 @ 00000217fcc6c8c0] Glyph 0xE17 not found, selecting one more font for (Arial, 400, 0)
[Parsed_ass_0 @ 00000217fcc6c8c0] fontselect: (Arial, 400, 0) -> LeelawadeeUI, 0, LeelawadeeUI
[libx264 @ 00000217fee17200] using SAR=1/1
[libx264 @ 00000217fee17200] using cpu capabilities: MMX2 SSE2Fast SSSE3 SSE4.2 AVX FMA3 BMI2 AVX2
[libx264 @ 00000217fee17200] profile High, level 3.1, 4:2:0, 8-bit
[libx264 @ 00000217fee17200] 264 - core 165 r3223 0480cb0 - H.264/MPEG-4 AVC codec - Copyleft 2003-2025 - http://www.videolan.org/x264.html - options: cabac=1 ref=1 deblock=1:0:0 analyse=0x3:0x113 me=hex subme=2 psy=1 psy_rd=1.00:0.00 mixed_ref=0 me_range=16 chroma_me=1 trellis=0 8x8dct=1 cqm=0 deadzone=21,11 fast_pskip=1 chroma_qp_offset=0 threads=17 lookahead_threads=4 sliced_threads=0 nr=0 decimate=1 interlaced=0 bluray_compat=0 constrained_intra=0 bframes=3 b_pyramid=2 b_adapt=1 b_bias=0 direct=1 weightb=1 open_gop=0 weightp=1 keyint=250 keyint_min=24 scenecut=40 intra_refresh=0 rc_lookahead=10 rc=crf mbtree=1 crf=28.0 qcomp=0.60 qpmin=0 qpmax=69 qpstep=4 ip_ratio=1.40 aq=1:1.00
Output #0, mp4, to 'outputs\v66_render_smoke\renders\V66_Smoke\20260509_061850_9f54b288\final_16x9.mp4':
  Metadata:
    major_brand     : isom
    minor_version   : 512
    compatible_brands: isomiso2avc1mp41
    encoder         : Lavf62.15.100
  Stream #0:0(und): Video: h264 (avc1 / 0x31637661), yuv420p(tv, progressive), 960x540 [SAR 1:1 DAR 16:9], q=2-31, 24 fps, 12288 tbn (default)
    Metadata:
      encoder         : Lavc62.30.100 libx264
      handler_name    : VideoHandler
    Side data:
      CPB properties: bitrate max/min/avg: 0/0/0 buffer size: 0 vbv_delay: N/A
frame=  482 fps=0.0 q=33.0 size=       0KiB time=00:00:20.00 bitrate=   0.0kbits/s speed=38.1x elapsed=0:00:00.52    
frame= 1036 fps=1004 q=33.0 size=       0KiB time=00:00:43.12 bitrate=   0.0kbits/s speed=41.8x elapsed=0:00:01.03    
frame= 1594 fps=1025 q=33.0 size=     256KiB time=00:01:06.33 bitrate=  31.6kbits/s speed=42.7x elapsed=0:00:01.55    
frame= 2142 fps=1039 q=33.0 size=     256KiB time=00:01:29.16 bitrate=  23.5kbits/s speed=43.2x elapsed=0:00:02.06    
[out#0/mp4 @ 00000217fcbf0000] video:393KiB audio:0KiB subtitle:0KiB other streams:0KiB global headers:0KiB muxing overhead: 6.997245%
frame= 2304 fps=1051 q=-1.0 Lsize=     421KiB time=00:01:35.91 bitrate=  35.9kbits/s speed=43.7x elapsed=0:00:02.19    
[libx264 @ 00000217fee17200] frame I:13    Avg QP:13.54  size:  2347
[libx264 @ 00000217fee17200] frame P:623   Avg QP:23.39  size:   346
[libx264 @ 00000217fee17200] frame B:1668  Avg QP:29.05  size:    94
[libx264 @ 00000217fee17200] consecutive B-frames:  1.4%  4.1%  6.1% 88.4%
[libx264 @ 00000217fee17200] mb I  I16..4: 96.3%  0.6%  3.1%
[libx264 @ 00000217fee17200] mb P  I16..4:  4.5%  0.1%  0.1%  P16..4:  3.2%  0.4%  0.2%  0.0%  0.0%    skip:91.6%
[libx264 @ 00000217fee17200] mb B  I16..4:  0.8%  0.0%  0.0%  B16..8:  1.5%  0.1%  0.0%  direct: 0.1%  skip:97.4%  L0:48.4% L1:46.9% BI: 4.7%
[libx264 @ 00000217fee17200] 8x8 transform intra:1.9% inter:27.8%
[libx264 @ 00000217fee17200] coded y,uvDC,uvAC intra: 2.1% 5.2% 2.0% inter: 0.1% 0.2% 0.0%
[libx264 @ 00000217fee17200] i16 v,h,dc,p: 96%  2%  1%  0%
[libx264 @ 00000217fee17200] i8 v,h,dc,ddl,ddr,vr,hd,vl,hu: 54%  3% 41%  1%  0%  0%  0%  0%  0%
[libx264 @ 00000217fee17200] i4 v,h,dc,ddl,ddr,vr,hd,vl,hu: 33% 13% 29%  3%  5%  4%  5%  3%  6%
[libx264 @ 00000217fee17200] i8c dc,h,v,p: 34%  3% 63%  0%
[libx264 @ 00000217fee17200] Weighted P-Frames: Y:0.6% UV:0.3%
[libx264 @ 00000217fee17200] kb/s:33.48
